<svg width="512" height="512" xmlns="http://www.w3.org/2000/svg">

 <g>
  <title>background</title>
  <rect fill="none" id="canvas_background" height="402" width="582" y="-1" x="-1"/>
 </g>
 <g>
  <title>Layer 1</title>
  <path id="svg_3" fill="#ffffff" d="m411.049,442.313l-221.826,0c-2.464,0 -4.47,-1.982 -4.5,-4.446l-2.04,-171.985c-0.03,-2.485 1.961,-4.523 4.446,-4.554c0.018,0 0.036,0 0.054,0c2.461,0 4.469,1.979 4.499,4.446l1.987,167.539l212.879,0l0,-169.117c0,-2.485 2.015,-4.5 4.5,-4.5s4.5,2.015 4.5,4.5l0,173.616c0.001,2.486 -2.014,4.501 -4.499,4.501z"/>
  <path id="svg_5" fill="#ffffff" d="m140.789,304.214c-9.378,0 -18.077,-5.135 -20.684,-12.209c-1.979,-5.371 -0.185,-10.948 4.923,-15.303c56.387,-47.802 112.765,-95.602 169.13,-143.396c0.813,-0.689 1.844,-1.068 2.91,-1.068l6.136,0c1.065,0 2.097,0.378 2.91,1.068l169.12,143.388c5.115,4.361 6.911,9.934 4.936,15.294c-2.573,6.985 -11.152,12.056 -20.397,12.056l-0.002,0c-5.609,0 -10.756,-1.86 -14.882,-5.379l-144.541,-122.531l-144.974,122.948c-4.096,3.372 -9.122,5.132 -14.585,5.132zm157.931,-162.975c-55.946,47.438 -111.904,94.882 -167.862,142.321c-3.251,2.771 -2.541,4.7 -2.308,5.334c1.125,3.053 6.311,6.32 12.239,6.32c2.337,0 5.764,-0.526 8.814,-3.038l147.833,-125.374c1.678,-1.424 4.141,-1.423 5.82,0l147.462,125.007c3.137,2.675 6.653,3.235 9.053,3.235l0.001,0c5.791,0 10.855,-3.188 11.953,-6.167c0.231,-0.63 0.938,-2.547 -2.321,-5.325l-167.851,-142.313l-2.833,0z"/>
  <path id="svg_7" fill="#ffffff" d="m338.739,442.313l-79.248,0c-2.485,0 -4.5,-2.015 -4.5,-4.5l0,-76.806c0,-11.672 4.621,-22.721 13.011,-31.111c8.392,-8.392 19.444,-13.014 31.12,-13.014c11.671,0 22.718,4.622 31.108,13.014c8.389,8.392 13.009,19.44 13.009,31.111l0,76.806c0,2.485 -2.014,4.5 -4.5,4.5zm-74.748,-9l70.248,0l0,-72.306c0,-19.04 -16.082,-35.125 -35.117,-35.125c-19.043,0 -35.131,16.085 -35.131,35.125l0,72.306z"/>
  <path id="svg_9" fill="#ffffff" d="m187.999,349.576l-151.965,0c-1.606,0 -3.09,-0.855 -3.895,-2.245s-0.808,-3.104 -0.008,-4.496l34.127,-59.433l-30.224,0c-1.606,0 -3.091,-0.856 -3.896,-2.247s-0.806,-3.104 -0.005,-4.497l38.199,-66.382l-34.298,0c-1.608,0 -3.094,-0.858 -3.897,-2.25s-0.803,-3.108 0.001,-4.5l109.49,-189.549c0.804,-1.392 2.289,-2.249 3.896,-2.249c0,0 0,0 0,0c1.608,0 3.094,0.858 3.897,2.251l96.403,167.081c1.242,2.153 0.503,4.905 -1.649,6.147c-2.154,1.243 -4.905,0.503 -6.147,-1.649l-92.506,-160.33l-101.692,176.048l34.283,0c1.606,0 3.091,0.856 3.896,2.247c0.804,1.391 0.806,3.105 0.005,4.497l-38.199,66.382l30.217,0c1.606,0 3.09,0.855 3.895,2.245s0.808,3.104 0.008,4.496l-34.127,59.433l144.192,0c2.485,0 4.5,2.015 4.5,4.5s-2.016,4.5 -4.501,4.5z"/>
  <path id="svg_11" fill="#ffffff" d="m159.81,442.313l-28.583,0c-2.485,0 -4.5,-2.015 -4.5,-4.5l0,-92.736c0,-2.485 2.015,-4.5 4.5,-4.5l28.583,0c2.485,0 4.5,2.015 4.5,4.5l0,92.736c0,2.485 -2.015,4.5 -4.5,4.5zm-24.083,-9l19.583,0l0,-83.736l-19.583,0l0,83.736z"/>
  <path id="svg_13" fill="#ffffff" d="m439.237,500.725l-359.083,0c-2.485,0 -4.5,-2.015 -4.5,-4.5l0,-29.006c0,-18.696 15.213,-33.906 33.913,-33.906l300.666,0c18.475,0 33.505,15.21 33.505,33.906l0,29.006c-0.001,2.485 -2.015,4.5 -4.501,4.5zm-354.583,-9l350.083,0l0,-24.506c0,-13.733 -10.993,-24.906 -24.505,-24.906l-300.665,0c-13.737,0 -24.913,11.173 -24.913,24.906l0,24.506z"/>
 </g>
</svg>